<?xml version="1.0" encoding="utf-8"?>
<!-- Generator: Adobe Illustrator 17.0.0, SVG Export Plug-In . SVG Version: 6.00 Build 0)  -->
<!DOCTYPE svg PUBLIC "-//W3C//DTD SVG 1.1//EN" "http://www.w3.org/Graphics/SVG/1.1/DTD/svg11.dtd">
<svg version="1.1" id="Layer_1" xmlns="http://www.w3.org/2000/svg" xmlns:xlink="http://www.w3.org/1999/xlink" x="0px" y="0px"
	 width="39.72px" height="28.591px" viewBox="1.783 1.412 39.72 28.591" enable-background="new 1.783 1.412 39.72 28.591"
	 xml:space="preserve">
<g>
	<path fill="#F6901E" d="M19.18,21.816c0,2.303-0.771,4.243-2.312,5.82c-1.541,1.578-3.445,2.367-5.713,2.367
		c-2.611,0-4.825-1.055-6.644-3.166c-1.819-2.111-2.728-4.679-2.728-7.707c0-3.667,1.113-7.036,3.341-10.106
		c2.227-3.07,5.397-5.607,9.509-7.611l1.413,2.942c-3,1.834-5.144,3.945-6.429,6.332c-0.858,1.535-1.414,3.39-1.671,5.565
		c1.883-1.108,3.359-1.663,4.429-1.663c1.969,0,3.595,0.683,4.879,2.047C18.537,18,19.18,19.727,19.18,21.816z M41.503,21.816
		c0,2.303-0.771,4.243-2.312,5.82c-1.541,1.578-3.445,2.367-5.713,2.367c-2.611,0-4.825-1.055-6.644-3.166
		c-1.819-2.111-2.728-4.679-2.728-7.707c0-3.667,1.113-7.036,3.341-10.106c2.227-3.07,5.397-5.607,9.509-7.611l1.413,2.942
		c-3,1.834-5.144,3.945-6.429,6.332c-0.858,1.535-1.414,3.39-1.671,5.565c1.883-1.108,3.359-1.663,4.429-1.663
		c1.969,0,3.595,0.683,4.879,2.047C40.86,18,41.503,19.727,41.503,21.816z"/>
</g>
</svg>
